<?xml version="1.0" encoding="UTF-8"?>
<!-- Created with Inkscape (http://www.inkscape.org/) -->

<svg
   viewBox="0 0 150 75"
   version="1.1"
   id="svg1"
   xml:space="preserve"
   xmlns:xlink="http://www.w3.org/1999/xlink"
   xmlns="http://www.w3.org/2000/svg"
   xmlns:svg="http://www.w3.org/2000/svg"><defs
     id="defs1"><linearGradient
       id="linearGradient8"><stop
         style="stop-color:#000000;stop-opacity:0.25531915;"
         offset="0"
         id="stop7" /><stop
         style="stop-color:#000000;stop-opacity:0;"
         offset="1"
         id="stop8" /></linearGradient><linearGradient
       id="linearGradient476"><stop
         style="stop-color:#643f91;stop-opacity:1;"
         offset="0.35766447"
         id="stop476" /><stop
         style="stop-color:#8156b3;stop-opacity:1;"
         offset="1"
         id="stop477" /></linearGradient><linearGradient
       id="linearGradient468"><stop
         style="stop-color:#000000;stop-opacity:0.45951861;"
         offset="0"
         id="stop468" /><stop
         style="stop-color:#000000;stop-opacity:0;"
         offset="1"
         id="stop469" /></linearGradient><linearGradient
       id="linearGradient1"><stop
         style="stop-color:#000000;stop-opacity:0.34;"
         offset="0"
         id="stop1" /><stop
         style="stop-color:#000000;stop-opacity:0;"
         offset="1"
         id="stop6" /></linearGradient><linearGradient
       id="linearGradient3"><stop
         style="stop-color:#000000;stop-opacity:0.38175675;"
         offset="0"
         id="stop4" /><stop
         style="stop-color:#000000;stop-opacity:0;"
         offset="1"
         id="stop5" /></linearGradient><clipPath
       clipPathUnits="userSpaceOnUse"
       id="clipPath412"><path
         id="lpe_path-effect413"
         style="display:inline;fill:#008000;fill-opacity:1;stroke-width:0.254456"
         class="powerclip"
         d="M 68.174004,44.879997 H 154.63947 V 131.34547 H 68.174004 Z M 84.314577,101.40537 A 25.446291,25.446291 0 0 0 58.868286,75.959082 25.446291,25.446291 0 0 0 33.421995,101.40537 25.446291,25.446291 0 0 0 58.868286,126.85166 25.446291,25.446291 0 0 0 84.314577,101.40537 Z" /></clipPath><clipPath
       clipPathUnits="userSpaceOnUse"
       id="clipPath460"><circle
         style="display:none;fill:#e9afaf;fill-opacity:1;stroke-width:0.244775"
         id="circle460"
         r="21.257351"
         cy="105.59435"
         cx="152.68935"
         d="M 173.9467,105.59435 A 21.257351,21.257351 0 0 1 152.68935,126.8517 21.257351,21.257351 0 0 1 131.432,105.59435 21.257351,21.257351 0 0 1 152.68935,84.337002 21.257351,21.257351 0 0 1 173.9467,105.59435 Z" /><path
         id="lpe_path-effect460"
         style="display:inline;fill:#e9afaf;fill-opacity:1;stroke-width:0.244775"
         class="powerclip"
         d="M 68.174004,44.879997 H 154.63947 V 131.34547 H 68.174004 Z M 173.9467,105.59435 A 21.257351,21.257351 0 0 0 152.68935,84.337002 21.257351,21.257351 0 0 0 131.432,105.59435 21.257351,21.257351 0 0 0 152.68935,126.8517 21.257351,21.257351 0 0 0 173.9467,105.59435 Z" /></clipPath><radialGradient
       xlink:href="#linearGradient3"
       id="radialGradient462"
       gradientUnits="userSpaceOnUse"
       gradientTransform="matrix(0.42157749,-0.11072849,0.11490226,0.43746838,20.699837,49.226114)"
       cx="254.34525"
       cy="166.80063"
       fx="254.34525"
       fy="166.80063"
       r="38.232735" /><radialGradient
       xlink:href="#linearGradient3"
       id="radialGradient463"
       gradientUnits="userSpaceOnUse"
       gradientTransform="matrix(0.51755069,-0.21909998,0.17975586,0.42461334,-2.204169,73.799393)"
       cx="105.52544"
       cy="91.25843"
       fx="105.52544"
       fy="91.25843"
       r="38.232735" /><radialGradient
       xlink:href="#linearGradient8"
       id="radialGradient464"
       gradientUnits="userSpaceOnUse"
       gradientTransform="matrix(0.1926634,1.2370958,-1.4068431,0.21909963,257.59445,110.465)"
       cx="12.643635"
       cy="143.44411"
       fx="12.643635"
       fy="143.44411"
       r="25.446291" /><radialGradient
       xlink:href="#linearGradient1"
       id="radialGradient465"
       gradientUnits="userSpaceOnUse"
       gradientTransform="matrix(-1.3061792,-2.6646212,0.99476143,-0.48762531,335.49862,695.89622)"
       cx="182.55319"
       cy="93.99865"
       fx="182.55319"
       fy="93.99865"
       r="21.257351" /><clipPath
       clipPathUnits="userSpaceOnUse"
       id="clipath_lpe_path-effect466"><path
         id="lpe_path-effect466"
         style="display:inline;fill:#ff5555;fill-opacity:1;stroke-width:0.277336"
         class="powerclip"
         d="M 28.422197,44.879627 H 178.94644 V 131.85167 H 28.422197 Z m 62.181924,57.780803 -1e-5,4.8e-4 a 1.2852307,1.2852307 0 0 0 0.913752,2.19257 l 6.087229,-0.0166 a 1.4326682,1.4326682 0 0 1 1.436571,1.42889 l 0.0485,18.39961 a 2.1976117,2.1976117 0 0 1 -2.19709,2.2034 l -6.373831,0.001 0.01341,4.02932 h 42.756888 l 0.0134,-4.02932 -6.37383,-0.001 a 2.1976117,2.1976117 0 0 1 -2.19709,-2.2034 l 0.0485,-18.39961 a 1.4326682,1.4326682 0 0 1 1.43657,-1.42889 l 6.08724,0.0166 a 1.2810241,1.2810241 0 0 0 0.90867,-2.18749 l -5.68828,-5.68011 a 2.2193072,2.2193072 0 0 1 -0.65114,-1.57195 l 0.005,-7.132119 a 0.61645575,0.61645575 0 0 0 -0.61417,-0.616881 l -3.49146,-0.01288 a 0.60858887,0.60858887 0 0 0 -0.61084,0.612309 l 0.009,1.47797 a 0.77329837,0.77329837 0 0 1 -1.32216,0.549461 l -8.23005,-8.292722 a 0.99940036,0.99940036 0 0 0 -1.41716,-0.0021 z" /></clipPath><linearGradient
       xlink:href="#linearGradient468"
       id="linearGradient469"
       x1="110.41595"
       y1="145.25107"
       x2="109.91728"
       y2="117.20523"
       gradientUnits="userSpaceOnUse" /><linearGradient
       xlink:href="#linearGradient476"
       id="linearGradient477"
       x1="34.170551"
       y1="126.15755"
       x2="160.10188"
       y2="30.742336"
       gradientUnits="userSpaceOnUse" /><clipPath
       clipPathUnits="userSpaceOnUse"
       id="clipath_lpe_path-effect14"><path
         id="path14"
         style="display:none;fill:#ff5555;fill-opacity:1;stroke-width:0.277336"
         d="M 90.604121,102.66043 111.20174,81.996968 a 0.99940036,0.99940036 0 0 1 1.41716,0.0021 l 8.23005,8.292722 a 0.77329837,0.77329837 0 0 0 1.32216,-0.549461 l -0.009,-1.47797 a 0.60858887,0.60858887 0 0 1 0.61084,-0.612309 l 3.49146,0.01288 a 0.61645575,0.61645575 0 0 1 0.61417,0.616881 l -0.005,7.132119 a 2.2193072,2.2193072 0 0 0 0.65114,1.57195 l 5.68828,5.68011 a 1.2810241,1.2810241 0 0 1 -0.90867,2.18749 l -6.08724,-0.0166 a 1.4326682,1.4326682 0 0 0 -1.43657,1.42889 l -0.0485,18.39961 a 2.1976117,2.1976117 0 0 0 2.19709,2.2034 l 6.37383,0.001 -0.0134,4.02932 H 90.532652 l -0.01341,-4.02932 6.373831,-0.001 a 2.1976117,2.1976117 0 0 0 2.19709,-2.2034 l -0.0485,-18.39961 a 1.4326682,1.4326682 0 0 0 -1.436571,-1.42889 l -6.087229,0.0166 a 1.2852307,1.2852307 0 0 1 -0.913752,-2.19257 z" /><path
         id="lpe_path-effect14"
         style="display:inline;fill:#ff5555;fill-opacity:1;stroke-width:0.277336"
         class="powerclip"
         d="M 28.422197,44.879627 H 178.94644 V 131.85167 H 28.422197 Z m 62.181924,57.780803 -1e-5,4.8e-4 a 1.2852307,1.2852307 0 0 0 0.913752,2.19257 l 6.087229,-0.0166 a 1.4326682,1.4326682 0 0 1 1.436571,1.42889 l 0.0485,18.39961 a 2.1976117,2.1976117 0 0 1 -2.19709,2.2034 l -6.373831,0.001 0.01341,4.02932 h 42.756888 l 0.0134,-4.02932 -6.37383,-0.001 a 2.1976117,2.1976117 0 0 1 -2.19709,-2.2034 l 0.0485,-18.39961 a 1.4326682,1.4326682 0 0 1 1.43657,-1.42889 l 6.08724,0.0166 a 1.2810241,1.2810241 0 0 0 0.90867,-2.18749 l -5.68828,-5.68011 a 2.2193072,2.2193072 0 0 1 -0.65114,-1.57195 l 0.005,-7.132119 a 0.61645575,0.61645575 0 0 0 -0.61417,-0.616881 l -3.49146,-0.01288 a 0.60858887,0.60858887 0 0 0 -0.61084,0.612309 l 0.009,1.47797 a 0.77329837,0.77329837 0 0 1 -1.32216,0.549461 l -8.23005,-8.292722 a 0.99940036,0.99940036 0 0 0 -1.41716,-0.0021 z" /></clipPath></defs><g
     id="layer6"
     transform="translate(-48.279797,-186.20724)"
     style="display:inline"><path
       id="path13"
       style="display:inline;fill:url(#linearGradient477);fill-opacity:1;stroke-width:0.2497"
       d="M 111.40658,49.879627 A 38.232735,38.232735 0 0 0 73.946338,80.910291 25.446291,25.446291 0 0 0 58.868189,75.959172 25.446291,25.446291 0 0 0 33.422197,101.40516 25.446291,25.446291 0 0 0 58.868189,126.85167 h 93.820631 a 21.257351,21.257351 0 0 0 21.25762,-21.2571 21.257351,21.257351 0 0 0 -21.25762,-21.257614 21.257351,21.257351 0 0 0 -3.21634,0.257865 38.232735,38.232735 0 0 0 -38.0659,-34.715194 z"
       transform="translate(14.8576,136.32753)"
       clip-path="url(#clipath_lpe_path-effect14)" /></g><g
     id="layer7"
     style="display:inline"
     transform="translate(-54.681297,-135.20861)"><circle
       style="display:inline;fill:url(#radialGradient465);stroke-width:0.244775"
       id="path6-6-4-6"
       r="21.257351"
       cy="190.92354"
       cx="173.94844" /><circle
       style="display:inline;fill:url(#radialGradient464);fill-opacity:1;stroke-width:0.254456"
       id="path4-1-0-0"
       r="25.446291"
       cy="186.73447"
       cx="80.127396" /><path
       id="path3-1-6-0"
       transform="translate(21.2591,85.328986)"
       clip-path="url(#clipPath412)"
       d="M 149.63947,88.112732 A 38.232735,38.232735 0 0 1 111.40674,126.34547 38.232735,38.232735 0 0 1 73.174004,88.112732 38.232735,38.232735 0 0 1 111.40674,49.879997 38.232735,38.232735 0 0 1 149.63947,88.112732 Z"
       style="display:inline;fill:url(#radialGradient463);stroke-width:0.2497" /><path
       id="path3-1-5-1-3"
       transform="translate(21.2591,85.328986)"
       clip-path="url(#clipPath460)"
       d="M 149.63947,88.112732 A 38.232735,38.232735 0 0 1 111.40674,126.34547 38.232735,38.232735 0 0 1 73.174004,88.112732 38.232735,38.232735 0 0 1 111.40674,49.879997 38.232735,38.232735 0 0 1 149.63947,88.112732 Z"
       style="display:inline;fill:url(#radialGradient462);stroke-width:0.2497" /><path
       id="path465"
       style="display:inline;fill:url(#linearGradient469);fill-opacity:1;stroke-width:0.2497"
       d="M 111.40658,49.879627 A 38.232735,38.232735 0 0 0 73.946338,80.910291 25.446291,25.446291 0 0 0 58.868189,75.959172 25.446291,25.446291 0 0 0 33.422197,101.40516 25.446291,25.446291 0 0 0 58.868189,126.85167 h 93.820631 a 21.257351,21.257351 0 0 0 21.25762,-21.2571 21.257351,21.257351 0 0 0 -21.25762,-21.257614 21.257351,21.257351 0 0 0 -3.21634,0.257865 38.232735,38.232735 0 0 0 -38.0659,-34.715194 z"
       transform="translate(21.2591,85.328986)"
       clip-path="url(#clipath_lpe_path-effect466)" /></g></svg>
